<?xml version="1.0" standalone="no"?>
<!DOCTYPE svg PUBLIC "-//W3C//DTD SVG 20010904//EN"
 "http://www.w3.org/TR/2001/REC-SVG-20010904/DTD/svg10.dtd">
<svg version="1.0" xmlns="http://www.w3.org/2000/svg"
 width="512.000000pt" height="512.000000pt" viewBox="0 0 512.000000 512.000000"
 preserveAspectRatio="xMidYMid meet">
<metadata>
Created by potrace 1.11, written by Peter Selinger 2001-2013
</metadata>
<g transform="translate(0.000000,512.000000) scale(0.100000,-0.100000)"
fill="#000000" stroke="none">
<path d="M2617 4444 c-1 -1 -58 -4 -127 -8 -141 -7 -154 -9 -300 -38 -458 -89
-801 -347 -934 -700 -44 -117 -60 -213 -60 -358 -1 -137 6 -212 25 -285 6 -22
13 -49 15 -60 8 -41 85 -188 127 -243 93 -120 253 -250 388 -314 135 -65 361
-144 624 -219 398 -114 537 -168 652 -253 115 -84 160 -178 150 -312 -12 -161
-120 -268 -322 -319 -77 -20 -307 -26 -405 -12 -247 36 -557 152 -809 302 -86
52 -244 166 -296 216 -17 16 -34 29 -38 29 -6 0 -133 -254 -299 -598 l-40 -83
24 -21 c12 -11 64 -51 113 -88 343 -254 808 -430 1265 -477 162 -17 463 -8
610 17 30 5 66 11 80 14 267 46 558 192 723 363 139 143 246 342 271 503 3 19
8 49 12 65 10 49 11 250 3 317 -29 224 -110 395 -251 535 -97 96 -137 128
-220 178 -144 88 -317 152 -893 334 -400 127 -549 218 -594 366 -77 250 97
416 439 418 130 1 178 -4 321 -34 102 -21 309 -81 341 -99 10 -6 22 -10 28
-10 22 0 253 -105 363 -165 65 -36 121 -65 125 -65 4 0 14 15 21 33 13 29 102
221 208 447 22 47 52 113 68 148 33 74 41 63 -100 141 -232 128 -513 230 -772
280 -87 17 -121 23 -213 36 -45 7 -319 22 -323 19z"/>
</g>
</svg>
